<?xml version="1.0" encoding="UTF-8"?>
<!DOCTYPE svg PUBLIC "-//W3C//DTD SVG 1.1//EN" "http://www.w3.org/Graphics/SVG/1.1/DTD/svg11.dtd">
<!-- Creator: CorelDRAW -->
<svg xmlns="http://www.w3.org/2000/svg" xml:space="preserve" width="128.524mm" height="87.636mm" version="1.1" style="shape-rendering:geometricPrecision; text-rendering:geometricPrecision; image-rendering:optimizeQuality; fill-rule:evenodd; clip-rule:evenodd"
viewBox="0 0 12838.81 8754.33"
 xmlns:xlink="http://www.w3.org/1999/xlink"
 xmlns:xodm="http://www.corel.com/coreldraw/odm/2003">
 <defs>
  <style type="text/css">
   <![CDATA[
    .fil0 {fill:#CC9516}
   ]]>
  </style>
 </defs>
 <g id="Camada_x0020_1">
  <metadata id="CorelCorpID_0Corel-Layer"/>
  <g id="_2532899956240">
   <path class="fil0" d="M1769.09 7765.73c0,161.49 26.01,273.37 26.01,429.26l-286.19 0c31.84,-60.17 227,-404.96 260.17,-429.26zm-520.32 221.13c44.39,-23.5 74.34,-39.04 130.08,-52.02 0,-209.94 119.94,-247.15 312.19,-247.15 79.96,0 -6.31,108.21 -65.77,207.4 -100.4,167.54 -300.68,586.08 -480.56,586.08 -89.33,0 -116.53,-55.84 -169.11,-91.06 -29.96,44.75 -64.27,52.44 -78.05,104.07 42.55,11.37 36.67,21.88 80.28,36.77 341.96,116.92 470.85,-283.91 531.08,-283.91l299.19 0c0,54.94 5.58,277.86 32.16,293.33 17.98,10.46 246.96,-38.49 280.04,-46.19l0 -39.02c-203.03,0 -151.05,-52.14 -189.64,-317.68l-31.51 -527.83c-50.52,0 -372.95,39.34 -440.89,66.41 -104.78,41.75 -206.31,167.19 -209.5,310.81z"/>
   <path class="fil0" d="M6920.2 7778.73l39.03 416.25 -286.17 0 208.44 -363.89c11.4,-19.62 -2.18,0.5 15.22,-23.8 9.24,-12.91 16.3,-20.28 23.48,-28.55zm-507.3 208.12c37.92,-20.06 79.14,-47.79 130.08,-52.02 0,-207.46 112.37,-247.15 312.19,-247.15 35.41,0 34.72,8.42 32.12,32.67l-99.6 173c-100.02,165.67 -300.47,587.82 -478.84,587.82 -89.32,0 -116.52,-55.84 -169.11,-91.06 -29.96,44.75 -64.25,52.44 -78.05,104.07 92.46,24.68 40.83,52.03 234.14,52.03 88.13,0 182.74,-64.09 223.29,-114.9 184.23,-230.79 26.18,-184.27 453.13,-184.27 0,119.15 13.01,186.52 13.01,299.17 63.94,0 110.5,-16.78 169.14,-25.97 73.79,-11.56 112.65,0.04 130.04,-65.08 -116.39,0 -144.72,2.13 -166.63,-93.52 -13.04,-56.77 -25.34,-172.65 -28.24,-231.91 -3.92,-79.51 -6.22,-162.99 -16.85,-243.32 -27.01,-204.21 51.98,-296.64 -101.66,-266.49 -47.89,9.41 -63.74,14.25 -115.88,15.74 -223.65,6.34 -436.47,90.54 -442.27,351.21z"/>
   <path class="fil0" d="M9313.68 8155.95l-7.16 27.96 7.16 -27.96zm0 0c0,-142.43 71.17,-160.43 -13.02,-286.18 -136.39,0 -164.52,15.45 -257.68,106.56 -33.94,33.16 -40.14,26.78 -41.51,88.57 70.71,-47.33 264.54,-292.27 189.67,33.57l-98.61 434.72 143.09 0c4.5,-202.17 136.92,-437.92 272.61,-534.08 244.3,-173.14 -3.11,295.04 52.58,534.08 100.88,23.51 127.48,19.77 203.35,-30.79 68.84,-45.85 101.25,-62.96 121.84,-151.33 -50.97,34.12 -138.46,149.29 -208.12,117.08 -29.79,-29.78 66.39,-381.8 75.57,-459.01 9.59,-80.54 -20.86,-96.48 -49.56,-139.36 -163.97,0 -210.49,42.1 -319.89,187.43 -30.04,39.89 -36.12,73.67 -70.35,98.75z"/>
   <path class="fil0" d="M8351.09 8403.12c0,-143.7 27.67,-308.91 126.05,-407.28 70.87,-70.87 117.42,-71.34 210.5,-45.73 54.1,14.87 53.77,21.88 43.62,76.06 -27.47,146.7 -214.46,382.82 -302.32,418.13 -33.44,13.47 -77.85,11.25 -77.85,-41.18zm-143.1 0c0,202.89 270.06,219.18 446.48,-125.89l34.82 -56.23c-14.2,170.7 -124.18,325.2 78.05,325.2 43.45,0 104.28,-37.94 135.81,-59.33 46.33,-31.45 83.74,-51.46 85.33,-122.77 -3.94,2.62 -208.12,186.85 -208.12,91.04 0,-116.03 87.88,-460.1 117.08,-585.37 -254.86,0 -356.64,-16.32 -491.2,120.21 -98.56,100.02 -198.24,221.05 -198.24,413.13z"/>
   <path class="fil0" d="M10744.54 8403.12c0,-143.7 27.67,-308.91 126.06,-407.28 70.87,-70.87 117.4,-71.34 210.49,-45.73 54.11,14.87 53.77,21.88 43.63,76.06 -17.75,94.68 -46.18,130.74 -91.23,197.61 -39.09,58.02 -144.91,193.92 -211.1,220.52 -33.43,13.47 -77.85,11.25 -77.85,-41.18zm-143.08 0c0,182.34 207.1,196.97 353.27,15.06l93.18 -140.95c1.8,-3.51 11.14,-22.05 13.33,-25.72 15.62,-26.35 6.52,-13.26 21.51,-30.51 -14.19,170.7 -124.19,325.2 78.05,325.2 43.44,0 104.27,-37.94 135.8,-59.33 46.35,-31.45 83.75,-51.46 85.35,-122.77 -3.94,2.62 -208.13,186.85 -208.13,91.04 0,-116.03 87.9,-460.1 117.07,-585.37 -254.84,0 -356.63,-16.32 -491.18,120.21 -98.56,100.02 -198.23,221.05 -198.23,413.13z"/>
   <path class="fil0" d="M3603.19 8403.12c0,-143.7 27.68,-308.91 126.06,-407.28 70.87,-70.87 117.41,-71.34 210.5,-45.73 54.09,14.87 53.75,21.88 43.61,76.06 -42.63,227.69 -380.17,556.57 -380.17,376.95zm-143.09 0c0,202.89 270.06,219.18 446.47,-125.89 1.79,-3.51 11.13,-22.05 13.31,-25.72 15.64,-26.35 6.53,-13.26 21.53,-30.51 -14.21,170.7 -124.19,325.2 78.05,325.2 43.43,0 104.28,-37.94 135.8,-59.33 46.34,-31.45 83.75,-51.46 85.34,-122.77 -36.98,24.76 -51.23,47.8 -93.15,76.04 -182.8,123.11 -109.24,-58.73 -64.04,-285.25 20.59,-103.15 43.72,-188.95 66.13,-285.12 -254.84,0 -356.62,-16.32 -491.18,120.21 -98.56,100.02 -198.24,221.05 -198.24,413.13z"/>
   <path class="fil0" d="M5255.2 8494.17c-217.38,0 -111.25,-572.34 104.06,-572.34 209.08,0 110.52,572.34 -104.06,572.34zm-260.15 -169.09c0,343.83 441.64,261.1 580.25,-57.15 68.92,-158.26 74.22,-398.15 -190.01,-398.15 -185.34,0 -390.24,255.66 -390.24,455.3z"/>
   <path class="fil0" d="M2536.55 8103.93c27.76,-20.35 161.35,-270.41 260.65,-52.52 48.54,106.45 86.38,345.22 51.54,494.8 91.68,-2.05 130.49,-67.8 174.61,-124.57 85.07,-109.54 299.1,-308.28 335.77,-432.89 14.85,-50.51 -3.71,-65.79 -16.08,-118.96 -72.27,0 -89.77,8.57 -143.09,13.03 76.58,114.37 25.83,196.79 -65.06,325.16 -35.18,49.68 -108.69,150.42 -156.06,182.14 0,-132.71 -15.45,-520.32 -195.12,-520.32 -137.56,0 -236.55,106.75 -247.15,234.15z"/>
   <path class="fil0" d="M2198.35 8442.15c0,202.14 226.64,69.37 303.54,-8.66 31.25,-31.69 33.39,-25.73 34.66,-82.41 -204.91,137.21 -251.7,250.4 -174.54,-135.5 28.19,-140.88 75.62,-406.11 115.31,-522.1 55.64,-162.63 165.4,-177.51 306.38,-109.87 67.21,-100.36 159.86,-104.05 -78.05,-104.05 -186.49,0 -330.53,176.38 -385.73,342.71 -29.58,89.13 -121.57,537.44 -121.57,619.88z"/>
   <path class="fil0" d="M7362.48 8442.15c0,202.14 226.64,69.37 303.54,-8.66 31.25,-31.69 33.4,-25.73 34.66,-82.41 -204.89,137.21 -251.7,250.4 -174.52,-135.5 28.17,-140.88 75.6,-406.11 115.29,-522.1 55.64,-162.63 165.4,-177.51 306.39,-109.87 67.2,-100.36 159.85,-104.05 -78.05,-104.05 -186.5,0 -330.54,176.38 -385.72,342.71 -29.58,89.13 -121.59,537.44 -121.59,619.88z"/>
   <path class="fil0" d="M9938.06 8325.07c0,127.14 50.79,210.2 182.11,221.13 -12.71,47.59 -13.73,27.25 -39.03,65.04 68.77,16.02 76.36,2.24 78.05,78.04 -76.6,17.86 -31.4,6.06 -104.06,0 -17.32,25.88 -23.67,36.04 -39.02,65.05 256.05,0 246.82,-144.88 156.09,-169.1 36.84,-55.03 123.2,-61.55 252.3,-137.93 42.77,-25.3 45.52,-22.48 46.87,-83.19 -158.16,83.68 -403.24,247.46 -403.24,-78.05 0,-156.22 116.04,-364.23 247.15,-364.23 63.13,0 80.6,27.61 117.08,52.03 0,56.36 6.23,63.97 -13.02,104.05 61.11,-1.35 79.9,-34.83 91.06,-169.11 -295.14,-156.15 -572.34,178.02 -572.34,416.28z"/>
   <path class="fil0" d="M4240.59 8064.9c32.65,-21.85 208.12,-222.7 208.12,-78.05 0,139.52 -97.86,471.87 -104.07,546.34l130.08 0c40.94,-175.74 22.32,-210.33 139.14,-368.17 43.31,-58.52 113.37,-164.94 193.95,-184.33 52.97,-12.76 43.31,6.87 96.16,19.17 13.73,-51.36 17.61,-27.73 46.6,-73.36 41.86,-65.93 -9.92,-56.72 -72.61,-56.72 -145.36,0 -266.57,231.74 -325.2,299.2 12.43,-149.29 89.56,-299.2 -78.05,-299.2 -61.68,0 -157.78,70.43 -199.48,112.72 -31.25,31.71 -33.39,25.73 -34.65,82.4z"/>
   <path class="fil0" d="M11512.01 8051.9c0,181.07 195.11,212.71 195.11,351.22 0,54.71 -78.53,104.04 -196.85,53.77 -46.05,-19.57 -36.69,-28.51 -89.32,-40.78 -18.11,67.82 -46.93,36.24 -65.04,104.07 81.9,6.8 53.86,26.01 208.13,26.01 100.01,0 247.16,-81.45 247.16,-208.13 0,-122.59 -290.51,-292.89 -168.68,-389.82 13.69,-10.88 181.68,-91.12 181.68,90.64l52.03 0c0,-65.22 13.02,-80.09 13.02,-156.09 -63.05,-5.24 -34.28,-13.03 -143.1,-13.03 -98.93,0 -234.14,89.93 -234.14,182.13z"/>
   <path class="fil0" d="M7765.74 7999.86c55.49,-4.61 61.55,-21.4 117.07,-26 57.42,108.53 -52.03,306.53 -52.03,481.29 0,139.87 164.04,100.58 256.54,22.42 75.44,-63.76 80.4,-69.51 81.66,-126.49 -2.83,1.92 -208.12,203.36 -208.12,104.07 0,-89.34 91.58,-475.97 117.08,-585.37 -46.58,3.9 -121.4,32.06 -173.82,47.35 -66.51,19.42 -122.41,22.94 -138.37,82.73z"/>
   <path class="fil0" d="M1743.06 7557.61c31.11,-16.47 41.77,-25.42 73.79,-43.3 183.98,-102.58 114.61,-28.27 186.37,-177.85 -53.6,14.32 -162.73,97.62 -214.29,136.93 -36.61,27.92 -41.3,29.28 -45.87,84.22z"/>
   <path class="fil0" d="M7947.84 7752.7c29.59,-7.88 100.87,-48.33 130.85,-64.23 45.03,-23.92 58.4,-49.86 77.28,-130.86 -45.51,24.05 -75.65,46.53 -119.9,75.22 -52.54,34.07 -72.53,52.48 -88.23,119.87z"/>
   <path class="fil0" d="M9846.99 2185.33l-8884.41 3395.05 8884.41 -3395.05zm0 0c0,161.37 35.1,324.55 39.03,481.29l80.03 960.6c6.97,66.2 35.07,452.05 50.06,483.29l-1287.79 0c147.64,-279.04 390.06,-668.51 558.69,-963.25l414.4 -717.29c26.36,-43.81 44.63,-78.48 71.64,-123.45 14.4,-24 23.02,-37.52 34.12,-56.95l39.82 -64.24zm-5671.44 0c0,165.9 67.39,741.64 78.28,962.34 3.37,68 19.9,168.77 24.92,235.24 6.69,88.4 6.53,155.74 15.85,244.31 6.96,66.2 35.06,452.05 50.04,483.29l-1287.77 0c41.36,-78.19 89.17,-160.16 137.39,-239.84 280.42,-463.06 556.35,-976.01 835.7,-1440.7 26.35,-43.81 44.63,-78.48 71.64,-123.45l73.94 -121.19zm1782.07 1404.85c0,-994.88 432.34,-1592.52 455.28,-1691.01 46.59,34.1 152.07,258.27 181.95,325.35 53.08,119.19 94.54,234.18 138.5,368.8 216.78,663.63 196.18,1487.57 -52.72,2136.12l-150.66 304.63c-8.94,-33.52 -40.76,-73.27 -65.03,-91.04 -54.92,36.77 -86.92,111.6 -156.09,130.07l-135.1 -320.18c-133.45,-386 -216.12,-741.9 -216.12,-1162.73zm1678.02 -403.23l517.93 -251.94c3.38,-246.41 39.22,-427.98 163.49,-614.58 114,-171.18 260.61,-278.5 461.43,-345.06 384.64,-127.53 607.47,-50.2 990.45,-50.2 -166.28,314.26 -373.39,648.64 -556.96,951.96l-484.32 829.48c-295.21,515.97 -737.26,1329.46 -1286.88,1548.84 -215.46,86.01 -476.69,79.55 -676.68,-26.27 437.14,-826.09 511.66,-1813.66 232.59,-2730.1 -70.52,-231.54 -164.59,-448.07 -280.43,-656.14 -40.45,-72.62 -83.82,-133.22 -121.25,-203.95 32.73,-48.88 62.57,-85.96 101.06,-133.05l114.59 -132.59c211.2,-273.08 666.27,-592.29 963.67,-740.35l346.39 -147.91c63.23,-24.82 114.96,-43.7 183.81,-63.35 735.32,-209.95 1532.34,-175.77 2237.47,119.01 58.9,24.6 85.96,38.74 145.02,63.09 216.53,89.28 559.01,318.78 730.84,478.92 75.02,69.9 141.85,129.12 214.66,201.58l188.34 214.91c129.65,144.8 225.89,314.65 326.04,480.45 56.14,92.91 88.92,176.53 136.94,279.3 135.12,289.1 227.98,638.35 256.16,966.59l25.27 389.61c-46,529.81 -71.41,822.32 -298.59,1328.01 -124.9,278.02 -273.78,524.91 -471.39,751.35 -73.01,83.66 -159.37,192.77 -246.14,261.16l-163.2 149.01c-305.27,256.48 -649.16,464.59 -1033.17,592.82 -1024.8,342.18 -2073.87,198.49 -2967.03,-399.02 -147.38,-98.59 -417.74,-311.42 -525.11,-450.48 -69.81,-90.41 -163.09,-172.79 -226.61,-267.69 86.36,0 135.28,26.04 234.14,26.04 527.92,0 795.76,-101.02 1154.46,-458.53 230.75,-230.01 393.66,-513.25 565.68,-787.15 16.71,-26.6 10.74,-42.11 48.93,-42.11l1391.85 0c0,214.18 46.77,426.44 52.03,637.38 5.27,210.51 52.03,438.15 52.03,650.41 135.19,0 918.22,-159.49 1124.83,-188.98 96.27,-13.76 110.92,-35.04 110.92,-201.28 -59.32,28.46 -189.82,10.37 -266.16,21.04 -78.91,11.05 -190.24,-18.14 -241.02,-47.18 -131.05,-74.89 -170.19,-216.83 -205.15,-380.2 -33.06,-154.5 -59.08,-346.48 -68.53,-516.82l-68.24 -803.29c-33.69,-256.19 -45.43,-555.01 -72.47,-812.06l-40.99 -830.55c0.32,-114.95 -13.04,-175.73 -13.04,-286.17 -180.94,0 -470.86,100.63 -715.5,104.01 -63.66,0.86 -68.11,8.46 -117.73,12.34 -49.68,3.92 -86.27,-1.26 -136.88,6.22 -85.55,12.63 -162.6,13.48 -248.96,24.22 -71.92,8.94 -157.54,23.9 -236.13,37.03 -424.1,70.82 -777.8,267.81 -1018.9,620.08 -158.45,231.53 -283.59,526.89 -283.59,822.1zm-6673.06 2393.44c63.31,0 117.22,18.66 170.83,24.29 409.82,43.11 800.31,-88.21 1100.14,-340.31 237.11,-199.36 553.55,-657.17 706.25,-945.73l1417.86 0c0,123.74 48.29,487.9 52.03,637.38 5.24,210.51 52.01,438.15 52.01,650.41l1124.84 -188.98c50.3,-7.19 110.92,19.12 110.92,-201.28 -47.87,22.99 -382.37,45.19 -507.18,-26.14 -131.07,-74.89 -170.2,-216.83 -205.15,-380.2 -80.82,-377.66 -72.1,-711.53 -116.54,-1054.18l-68.44 -803.08c-15.5,-313.94 -51.31,-452.47 -51.83,-832.72l-26.46 -558.91 -466.99 79.37c-60.52,12.47 -175.98,23.63 -248.52,24.64 -63.65,0.86 -68.1,8.46 -117.72,12.34l-385.83 30.45c-525.27,65.3 -939.05,195.41 -1255.03,657.11 -157.45,230.08 -283.59,537.68 -283.59,822.1l517.93 -251.94c2.38,-241.46 35.19,-379.45 119.25,-541.74 179.6,-346.79 488.27,-436.68 851.04,-488.78 215.54,-30.97 445.04,20.68 645.08,20.68 -132.82,251 -505.71,870.52 -652.99,1116.11l-162.49 279.77c-28.5,51.23 -55.58,90 -82.07,139.06 -183.14,339.15 -540.37,923.14 -765.59,1224.62 -261.59,350.24 -611.78,694.31 -1116.97,618.9 -186.64,-27.85 -304.88,-117.3 -423.36,-240.03 -36.38,-37.71 -66.02,-95.32 -100.54,-120.59l-153.26 145.96 -115.58 -267.38c-179.15,-399.73 -236.26,-875.17 -238.57,-1322.54 -0.63,-121.13 14.61,-247.54 28.35,-361.91 50.09,-416.77 195.02,-816.71 392,-1168.94 233.31,-417.2 536.45,-752.76 913.95,-1037.21 942.24,-710.01 2295.73,-851.61 3340.12,-350.14 369.55,177.43 638.81,355.13 922.31,638.62 41.95,41.97 360.98,358.45 360.98,419.51l-216.82 407.6c-226.2,451.66 -342.53,974.15 -342.53,1530.6 0,577.36 149.58,1252.07 444.76,1740.57l114.59 210.62c-11.44,88.21 -433.12,488.76 -530.3,575.38 -180.72,161.1 -458.13,334.69 -675.01,443.66 -145.82,73.27 -375.47,155.15 -536.11,205.35 -552.23,172.58 -1205.2,158.16 -1755.14,21.8 -408.13,-101.2 -990.04,-386.26 -1300.22,-676.99l-484.45 -517.18zm-962.58 -2003.2c0,389.92 71.65,794 186.97,1139.83 77.45,232.29 225.96,557.61 359.36,759.32 33.11,50.07 55.96,91.12 93.03,141.11 126.08,170.06 256.33,342.27 404.15,493.39 102.22,104.49 377.41,325.42 491.27,406.26 471.52,334.84 1037.78,548.59 1616.82,620.56 460.6,57.27 911.88,16.29 1354.49,-95.03 147.09,-36.99 269.29,-80.15 401.77,-131.54 68.84,-26.69 114.17,-49.23 181.99,-78.17 323.58,-138.15 547.82,-315 808.28,-518.52l527.77 -538.88c33.01,24.17 83.46,101.12 120.33,139.81 162.14,170.21 173.75,197.59 396.95,396.54l627.32 426.33c330.4,163.87 389.17,193.61 752.98,300.66 255.36,75.14 658.93,128.5 938.15,128.5 918.42,0 1855.12,-378.25 2494.27,-1017.87 37.84,-37.85 66.1,-66.39 104.11,-104.05 87.54,-86.75 227.27,-265.75 300.57,-362.8 374.5,-495.91 678.23,-1287.04 678.23,-1975.39l0 -234.15c0,-618.46 -220.49,-1245.23 -486.78,-1698.55 -1000.45,-1703.08 -3195.93,-2299.96 -4941.72,-1258.44 -140.72,83.96 -355.1,231.95 -460.82,332.67 -105.83,100.79 -480.55,430.58 -510.57,543.06 -46.95,-12.53 -72.37,-62.57 -128.14,-132.01 -184.11,-229.27 -453.06,-453.48 -691.22,-622.59 -97.92,-69.54 -215.27,-146.71 -329.52,-203.79 -563.71,-281.66 -1041.91,-433.45 -1725.87,-433.45 -275.07,0 -566.06,37.53 -790.98,93.53 -231.08,57.55 -468.53,130.23 -670.4,227.16 -354.56,170.24 -508.94,273.2 -813.32,513.5 -207.94,164.15 -500.29,486.48 -641.79,698.03 -195.7,292.53 -339,551.06 -450.91,888.92 -125.52,378.91 -196.76,754.33 -196.76,1156.05z"/>
  </g>
 </g>
</svg>
